<svg width="142" height="32" viewBox="0 0 142 32" fill="none" xmlns="http://www.w3.org/2000/svg">
<path d="M65.9077 17.1108L68.2033 12.7113L70.499 17.1108H65.9092H65.9077ZM117.241 21.334H119.757V13.9489L126.863 21.334H129.379V10.6678H126.863V17.9214L119.992 10.6678H117.24V21.334H117.241ZM99.6449 21.334H111.18V19.3028H102.176V16.9484H108.193V14.9172H102.176V12.6958H110.9V10.6647H99.6449V21.3309V21.334ZM88.8751 15.3751H83.0493V12.6835H88.8612C89.7445 12.6835 90.3617 13.2574 90.3617 14.0664C90.3617 14.8322 89.7445 15.3751 88.8751 15.3751ZM80.517 21.334H83.0478V17.3908H87.6824L90.1684 21.334H93.0518L90.3741 17.199C91.8607 16.7581 92.86 15.8748 92.86 14.1097C92.86 12.0647 91.2264 10.6663 88.9169 10.6663H80.5154V21.3324L80.517 21.334ZM61.2297 21.334H63.8332L64.9656 19.1125H71.4395L72.5719 21.334H75.2636L69.7317 10.6678H66.8034L61.2266 21.334H61.2297ZM47.0752 21.334H57.5217V19.2007H49.6354V10.6678H47.0752V21.334ZM37.13 17.5965C38.7481 17.5965 39.9407 17.0814 40.8519 16.376L39.1595 15.14C38.615 15.5376 37.939 15.6984 37.1594 15.6984C35.747 15.6984 34.791 15.007 34.791 14.051C34.791 13.0949 35.747 12.4035 37.1594 12.4035C37.8802 12.4035 38.5578 12.5504 39.1008 12.9619L40.7931 11.712C39.8804 11.005 38.6893 10.5054 37.13 10.5054C34.4677 10.5054 32.5835 12.0059 32.5835 14.051C32.5835 16.096 34.4367 17.5965 37.13 17.5965ZM34.3346 21.334H39.4395V19.4513H34.3346V21.334ZM12.1763 21.334H14.6189V14.3743L18.9441 21.334H20.1801L24.5054 14.2722V21.334H26.948V10.6678H24.0939L19.6062 18.0823L15.1634 10.6678H12.1763V21.334Z" fill="white"/>
</svg>
